<?xml version="1.0" encoding="utf-8"?>
<!-- Generator: Adobe Illustrator 16.0.0, SVG Export Plug-In . SVG Version: 6.00 Build 0)  -->
<!DOCTYPE svg PUBLIC "-//W3C//DTD SVG 1.1//EN" "http://www.w3.org/Graphics/SVG/1.1/DTD/svg11.dtd">
<svg version="1.1" xmlns="http://www.w3.org/2000/svg" xmlns:xlink="http://www.w3.org/1999/xlink" x="0px" y="0px" width="70px"
	 height="70px" viewBox="0 0 70 70" enable-background="new 0 0 70 70" xml:space="preserve">
<g id="BG" display="none">
	<rect display="inline" fill="#414042" width="70" height="70"/>
</g>
<g id="ICON" display="none">
	<path display="inline" fill="none" stroke="#FFFFFF" stroke-width="2" stroke-miterlimit="10" d="M66.242,54.639
		c0,6.408-5.195,11.604-11.604,11.604H15.361c-6.408,0-11.604-5.195-11.604-11.604V15.361c0-6.408,5.196-11.604,11.604-11.604
		h39.277c6.408,0,11.604,5.196,11.604,11.604V54.639z"/>
	<path display="inline" fill-rule="evenodd" clip-rule="evenodd" fill="#FFFFFF" d="M13.618,18.425c0-2.669,2.165-4.834,4.834-4.834
		l0,0c2.67,0,4.835,2.165,4.835,4.834l0,0c0,2.671-2.165,4.836-4.835,4.836l0,0C15.783,23.261,13.618,21.096,13.618,18.425
		L13.618,18.425z"/>
	<path display="inline" fill-rule="evenodd" clip-rule="evenodd" fill="#FFFFFF" d="M30.166,18.425c0-2.669,2.165-4.834,4.834-4.834
		l0,0c2.672,0,4.837,2.165,4.837,4.834l0,0c0,2.671-2.165,4.836-4.837,4.836l0,0C32.331,23.261,30.166,21.096,30.166,18.425
		L30.166,18.425z"/>
	<path display="inline" fill-rule="evenodd" clip-rule="evenodd" fill="#FFFFFF" d="M46.712,18.425c0-2.669,2.165-4.834,4.837-4.834
		l0,0c2.668,0,4.833,2.165,4.833,4.834l0,0c0,2.671-2.165,4.836-4.833,4.836l0,0C48.877,23.261,46.712,21.096,46.712,18.425
		L46.712,18.425z"/>
	<path display="inline" fill-rule="evenodd" clip-rule="evenodd" fill="#FFFFFF" d="M13.618,35.083c0-2.671,2.165-4.836,4.834-4.836
		l0,0c2.67,0,4.835,2.165,4.835,4.836l0,0c0,2.669-2.165,4.833-4.835,4.833l0,0C15.783,39.917,13.618,37.753,13.618,35.083
		L13.618,35.083z"/>
	<path display="inline" fill-rule="evenodd" clip-rule="evenodd" fill="#FFFFFF" d="M46.712,35.083c0-2.671,2.165-4.836,4.837-4.836
		l0,0c2.668,0,4.833,2.165,4.833,4.836l0,0c0,2.669-2.165,4.833-4.833,4.833l0,0C48.877,39.917,46.712,37.753,46.712,35.083
		L46.712,35.083z"/>
	<path display="inline" fill-rule="evenodd" clip-rule="evenodd" fill="#FFFFFF" d="M13.618,51.521c0-2.671,2.165-4.835,4.834-4.835
		l0,0c2.67,0,4.835,2.164,4.835,4.835l0,0c0,2.668-2.165,4.833-4.835,4.833l0,0C15.783,56.354,13.618,54.189,13.618,51.521
		L13.618,51.521z"/>
	<path display="inline" fill-rule="evenodd" clip-rule="evenodd" fill="#FFFFFF" d="M30.166,51.521c0-2.671,2.165-4.835,4.834-4.835
		l0,0c2.672,0,4.837,2.164,4.837,4.835l0,0c0,2.668-2.165,4.833-4.837,4.833l0,0C32.331,56.354,30.166,54.189,30.166,51.521
		L30.166,51.521z"/>
	<path display="inline" fill-rule="evenodd" clip-rule="evenodd" fill="#FFFFFF" d="M30.22,35.027c0-2.67,2.166-4.834,4.835-4.834
		l0,0c2.669,0,4.834,2.165,4.834,4.834l0,0c0,2.67-2.165,4.835-4.834,4.835l0,0C32.385,39.862,30.22,37.697,30.22,35.027
		L30.22,35.027z"/>
	<path display="inline" fill-rule="evenodd" clip-rule="evenodd" fill="#FFFFFF" d="M51.492,46.741
		c-2.668,0-4.833,2.165-4.833,4.832c0,2.672,2.165,4.836,4.833,4.836c2.671,0,4.835-2.164,4.835-4.836
		C56.327,48.906,54.163,46.741,51.492,46.741z M51.492,55.491c-2.161,0-3.915-1.754-3.915-3.918c0-2.16,1.754-3.914,3.915-3.914
		c2.164,0,3.917,1.754,3.917,3.914C55.409,53.737,53.656,55.491,51.492,55.491z"/>
</g>
<g id="INTERFACE" display="none">
	<path display="inline" fill="none" stroke="#FFFFFF" stroke-width="2" stroke-miterlimit="10" d="M66.242,54.639
		c0,6.408-5.195,11.604-11.604,11.604H15.361c-6.408,0-11.604-5.195-11.604-11.604V15.361c0-6.408,5.196-11.604,11.604-11.604
		h39.277c6.408,0,11.604,5.196,11.604,11.604V54.639z"/>
	<path display="inline" fill="none" stroke="#FFFFFF" stroke-width="2" stroke-miterlimit="10" d="M55.416,23.667
		c0,3.682-2.984,6.667-6.667,6.667H21.25c-3.682,0-6.667-2.985-6.667-6.667l0,0c0-3.682,2.985-6.667,6.667-6.667h27.499
		C52.432,17,55.416,19.985,55.416,23.667L55.416,23.667z"/>
	<path display="inline" fill="none" stroke="#FFFFFF" stroke-width="2" stroke-miterlimit="10" d="M55.416,46.332
		c0,3.684-2.984,6.668-6.667,6.668H21.25c-3.682,0-6.667-2.984-6.667-6.668l0,0c0-3.682,2.985-6.666,6.667-6.666h27.499
		C52.432,39.666,55.416,42.65,55.416,46.332L55.416,46.332z"/>
	
		<circle display="inline" fill="#FFFFFF" stroke="#FFFFFF" stroke-width="2" stroke-miterlimit="10" cx="21.833" cy="23.667" r="6.727"/>
	
		<circle display="inline" fill="#FFFFFF" stroke="#FFFFFF" stroke-width="2" stroke-miterlimit="10" cx="48.688" cy="46.333" r="6.728"/>
</g>
<g id="BRANDING" display="none">
	<path display="inline" fill="none" stroke="#FFFFFF" stroke-width="2" stroke-miterlimit="10" d="M66.242,54.639
		c0,6.408-5.195,11.604-11.604,11.604H15.361c-6.408,0-11.604-5.195-11.604-11.604V15.361c0-6.408,5.195-11.604,11.604-11.604
		h39.277c6.408,0,11.604,5.195,11.604,11.604V54.639z"/>
	<g display="inline">
		<polygon fill="#FFFFFF" points="25.81,50.745 25.797,50.745 25.797,37.652 25.797,36.19 25.797,31.509 25.797,29.743 
			25.797,17.904 25.81,17.904 25.81,13.222 20.544,13.222 20.544,55.429 25.81,55.429 		"/>
		<path fill="#FFFFFF" d="M43.769,33.66c3.859-0.822,7.403-4.366,7.403-9.681c0-6.328-4.493-10.757-11.834-10.757h-8.8v4.683h7.915
			c4.746,0,7.277,3.037,7.277,6.834c0,3.86-2.531,6.771-7.277,6.771h-7.915v4.681h8.232c5.125,0,7.782,3.418,7.782,7.277
			c0,4.494-2.91,7.277-7.782,7.277h-8.232v4.684h9.244c7.721,0,12.213-4.62,12.213-11.391C51.994,38.976,48.261,34.356,43.769,33.66
			z"/>
	</g>
</g>
<g id="WEB">
	<path fill="none" stroke="#FFFFFF" stroke-width="2" stroke-miterlimit="10" d="M66.242,54.639c0,6.408-5.195,11.604-11.604,11.604
		H15.361c-6.408,0-11.604-5.195-11.604-11.604V15.361c0-6.408,5.195-11.604,11.604-11.604h39.277
		c6.408,0,11.604,5.195,11.604,11.604V54.639z"/>
	<polygon fill-rule="evenodd" clip-rule="evenodd" fill="#FFFFFF" points="34.999,11.399 36.561,14.105 38.124,16.811 
		34.999,16.811 31.875,16.811 33.437,14.105 	"/>
	<polygon fill-rule="evenodd" clip-rule="evenodd" fill="#FFFFFF" points="34.999,58.602 33.437,55.896 31.875,53.188 
		34.999,53.188 38.124,53.188 36.561,55.896 	"/>
	<polygon fill-rule="evenodd" clip-rule="evenodd" fill="#FFFFFF" points="58.601,35.079 55.894,36.642 53.188,38.204 
		53.188,35.079 53.188,31.955 55.894,33.517 	"/>
	<polygon fill-rule="evenodd" clip-rule="evenodd" fill="#FFFFFF" points="11.398,35.079 14.105,33.517 16.811,31.955 
		16.811,35.079 16.811,38.204 14.105,36.642 	"/>
	<path fill="#FFFFFF" d="M54.959,15.059l-11.542,8.283l-11.542,8.283l0.002,0.002l0.002-0.003l1.331,1.331
		c0.494-0.493,1.176-0.798,1.928-0.798c1.506,0,2.728,1.221,2.728,2.727c0,0.753-0.306,1.435-0.799,1.929l1.328,1.328l8.281-11.539
		L54.959,15.059z"/>
	<path fill="#FFFFFF" d="M37.064,36.813c-0.494,0.491-1.174,0.796-1.926,0.796c-1.505,0-2.726-1.221-2.726-2.727
		c0-0.751,0.305-1.432,0.796-1.925l-1.331-1.331l-8.28,11.538l-8.284,11.544l11.543-8.284l11.542-8.282l-0.003-0.003l-0.002,0.003
		L37.064,36.813z"/>
	
		<rect x="31.603" y="32.288" transform="matrix(0.7072 0.707 -0.707 0.7072 32.3564 -13.5545)" fill="#FFFFFF" width="1.882" height="0.004"/>
	
		<rect x="36.79" y="37.475" transform="matrix(-0.7071 -0.7071 0.7071 -0.7071 37.9092 90.6556)" fill="#FFFFFF" width="1.88" height="0.004"/>
	<path fill="none" d="M31.699,34.999c0,1.825,1.479,3.303,3.303,3.303c0.91,0,1.736-0.368,2.333-0.962l1.609,1.608l0.004-0.005
		l-1.608-1.608c0.597-0.598,0.966-1.424,0.966-2.336c0-1.824-1.479-3.303-3.303-3.303c-0.912,0-1.737,0.37-2.335,0.968l-1.613-1.613
		l-0.003,0.005l1.612,1.613C32.067,33.265,31.699,34.089,31.699,34.999z"/>
	<path fill="none" d="M38.951,38.948L25.485,48.61c2.711,1.916,6.021,3.041,9.593,3.041c9.197,0,16.652-7.454,16.652-16.651
		c0-3.581-1.131-6.897-3.054-9.612l-9.729,13.556L38.951,38.948z"/>
	<path fill="none" d="M31.047,31.052l13.546-9.719c-2.697-1.881-5.976-2.985-9.514-2.985c-9.197,0-16.652,7.456-16.652,16.652
		c0,3.53,1.101,6.805,2.976,9.499l9.649-13.444L31.047,31.052z"/>
	<path fill="#FFFFFF" d="M48.98,24.966l-0.304,0.422C50.6,28.103,51.73,31.419,51.73,35c0,9.197-7.455,16.651-16.652,16.651
		c-3.572,0-6.882-1.125-9.593-3.041l-0.517,0.373l-2.444,1.754c3.421,2.729,7.756,4.362,12.475,4.362
		c11.058,0,20.021-8.963,20.021-20.021c0-4.712-1.628-9.044-4.354-12.464L48.98,24.966z"/>
	<path fill="#FFFFFF" d="M21.402,44.499c-1.875-2.694-2.976-5.969-2.976-9.499c0-9.197,7.456-16.652,16.652-16.652
		c3.539,0,6.817,1.104,9.514,2.985l0.439-0.315l2.339-1.68c-3.405-2.68-7.702-4.279-12.372-4.279
		c-11.058,0-20.02,8.963-20.02,20.021c0,4.677,1.604,8.98,4.293,12.39l1.747-2.435L21.402,44.499z"/>
</g>
<g id="CONCEPT" display="none">
	<path display="inline" fill="none" stroke="#FFFFFF" stroke-width="2" stroke-miterlimit="10" d="M66.242,54.639
		c0,6.408-5.195,11.604-11.604,11.604H15.361c-6.408,0-11.604-5.195-11.604-11.604V15.361c0-6.408,5.195-11.604,11.604-11.604
		h39.277c6.408,0,11.604,5.195,11.604,11.604V54.639z"/>
	<g display="inline">
		
			<rect x="32.112" y="18.903" transform="matrix(0.7071 0.7071 -0.7071 0.7071 35.5526 -14.4649)" fill-rule="evenodd" clip-rule="evenodd" fill="#FFFFFF" width="6.248" height="33.553"/>
		<path fill-rule="evenodd" clip-rule="evenodd" fill="#FFFFFF" d="M50.237,25.094l2.272-2.272c1.217-1.217,1.616-2.789,0.894-3.513
			l-1.797-1.797c-0.724-0.723-2.297-0.324-3.514,0.893l-2.273,2.273L50.237,25.094z"/>
		<path fill-rule="evenodd" clip-rule="evenodd" fill="#FFFFFF" d="M20.529,46.077c-0.023,0.043-0.043,0.086-0.059,0.126
			l-3.285,6.911c-0.143,0.242-0.165,0.489-0.034,0.62c0.102,0.101,0.271,0.112,0.454,0.046c0.056-0.02,0.113-0.048,0.169-0.08
			l6.924-3.306c0.033-0.014,0.066-0.029,0.099-0.048L20.529,46.077z"/>
	</g>
	<g display="inline">
		<path fill-rule="evenodd" clip-rule="evenodd" fill="#FFFFFF" d="M24.582,36.966l2.571-2.571H12.395
			c-0.709,0-1.285,0.575-1.285,1.286c0,0.709,0.575,1.286,1.285,1.286H24.582z"/>
		<path fill-rule="evenodd" clip-rule="evenodd" fill="#FFFFFF" d="M57.605,34.395H45.57l-2.571,2.571h14.606
			c0.709,0,1.284-0.576,1.284-1.286C58.89,34.97,58.314,34.395,57.605,34.395z"/>
	</g>
</g>
</svg>
